<svg xmlns="http://www.w3.org/2000/svg" aria-hidden="true" style="position:absolute;width:0;height:0;overflow:hidden">
  <defs>
    <symbol id="icon-home" viewBox="0 0 32 32">
      <path d="m32 19-6-6V4h-4v5l-6-6L0 19v1h4v10h10v-6h4v6h10V20h4z"/>
    </symbol>
    <symbol id="icon-paint" viewBox="0 0 32 32">
      <path d="M32 18V6h-6V4c0-1.1-.9-2-2-2H2C.9 2 0 2.9 0 4v6c0 1.1.9 2 2 2h22c1.1 0 2-.9 2-2V8h4v8H12v4h-1c-.552 0-1 .448-1 1v10c0 .552.448 1 1 1h4c.552 0 1-.448 1-1V21c0-.552-.448-1-1-1h-1v-2h18zM24 6H2V4h22v2z"/>
    </symbol>
    <symbol id="icon-lifebuoy" viewBox="0 0 32 32">
      <path d="M16 0C7.163 0 0 7.163 0 16s7.163 16 16 16 16-7.163 16-16S24.837 0 16 0zm-6 16c0-3.314 2.686-6 6-6s6 2.686 6 6-2.686 6-6 6-6-2.686-6-6zm18.937 5.359-5.544-2.297c.391-.943.608-1.977.608-3.062s-.216-2.119-.608-3.062l5.544-2.297C29.622 12.292 30 14.101 30 16s-.379 3.708-1.063 5.359zM21.359 3.063l-2.297 5.544C18.119 8.216 17.085 8 16 8s-2.119.216-3.062.607l-2.297-5.544C12.292 2.379 14.101 2 16 2s3.708.379 5.359 1.063zM3.063 10.641l5.544 2.297c-.391.943-.608 1.977-.608 3.062s.216 2.119.607 3.062l-5.544 2.297c-.685-1.651-1.063-3.46-1.063-5.359s.379-3.708 1.063-5.359zm7.578 18.296 2.297-5.544c.943.391 1.977.608 3.062.608s2.119-.216 3.062-.608l2.297 5.544C19.708 29.621 17.899 30 16 30s-3.708-.379-5.359-1.063z"/>
    </symbol>
    <symbol id="icon-enlarge" viewBox="0 0 32 32">
      <path d="M32 0v13l-5-5-6 6-3-3 6-6-5-5zM14 21l-6 6 5 5H0V19l5 5 6-6z"/>
    </symbol>
    <symbol id="icon-menu" viewBox="0 0 32 32">
      <path d="M2 6h28v6H2zm0 8h28v6H2zm0 8h28v6H2z"/>
    </symbol>
    <symbol id="icon-arrow-right" viewBox="0 0 32 32">
      <path d="m19.414 27.414 10-10a2 2 0 0 0 0-2.828l-10-10a2 2 0 1 0-2.828 2.828L23.172 14H4a2 2 0 1 0 0 4h19.172l-6.586 6.586c-.39.39-.586.902-.586 1.414s.195 1.024.586 1.414a2 2 0 0 0 2.828 0z"/>
    </symbol>
    <symbol id="icon-email" viewBox="2 -2 32 32">
      <path d="M29.021 5.373H6.98c-1.515 0-2.741 1.105-2.741 2.456l-.014 14.737c0 1.351 1.24 2.456 2.755 2.456h22.041c1.515 0 2.755-1.105 2.755-2.456V7.829c0-1.351-1.24-2.456-2.755-2.456zm-.551 5.22-9.739 5.428a1.536 1.536 0 0 1-1.46 0l-9.739-5.428c-.344-.196-.551-.528-.551-.884 0-.823 1.006-1.314 1.791-.884l9.23 5.146 9.23-5.146c.785-.43 1.791.061 1.791.884 0 .356-.207.688-.551.884z"/>
    </symbol>
    <symbol id="icon-phone" viewBox="-2 -1 35 35">
      <path d="M22 20c-2 2-2 4-4 4s-4-2-6-4-4-4-4-6 2-2 4-4-4-8-6-8-6 6-6 6c0 4 4.109 12.109 8 16s12 8 16 8c0 0 6-4 6-6s-6-8-8-6z"/>
    </symbol>
    <symbol id="icon-user" viewBox="-1 -1 33 33">
      <path d="M18 22.082v-1.649c2.203-1.241 4-4.337 4-7.432 0-4.971 0-9-6-9s-6 4.029-6 9c0 3.096 1.797 6.191 4 7.432v1.649C7.216 22.637 2 25.97 2 30h28c0-4.03-5.216-7.364-12-7.918z"/>
    </symbol>
  </defs>
</svg>
